<svg width="281" height="50" viewBox="0 0 281 50" fill="none" xmlns="http://www.w3.org/2000/svg">
<path d="M67.448 37V11.8H72.92L80.948 27.784L88.868 11.8H94.34V37H89.732V19.612L82.712 33.4H79.076L72.056 19.612V37H67.448ZM107.797 37.432C105.997 37.432 104.401 37.048 103.009 36.28C101.617 35.512 100.525 34.432 99.7333 33.04C98.9413 31.648 98.5453 30.04 98.5453 28.216C98.5453 26.368 98.9293 24.724 99.6973 23.284C100.489 21.844 101.569 20.728 102.937 19.936C104.329 19.12 105.961 18.712 107.833 18.712C109.585 18.712 111.133 19.096 112.477 19.864C113.821 20.632 114.865 21.688 115.609 23.032C116.377 24.352 116.761 25.828 116.761 27.46C116.761 27.724 116.749 28 116.725 28.288C116.725 28.576 116.713 28.876 116.689 29.188H103.117C103.213 30.58 103.693 31.672 104.557 32.464C105.445 33.256 106.513 33.652 107.761 33.652C108.697 33.652 109.477 33.448 110.101 33.04C110.749 32.608 111.229 32.056 111.541 31.384H116.221C115.885 32.512 115.321 33.544 114.529 34.48C113.761 35.392 112.801 36.112 111.649 36.64C110.521 37.168 109.237 37.432 107.797 37.432ZM107.833 22.456C106.705 22.456 105.709 22.78 104.845 23.428C103.981 24.052 103.429 25.012 103.189 26.308H112.081C112.009 25.132 111.577 24.196 110.785 23.5C109.993 22.804 109.009 22.456 107.833 22.456ZM126.793 37.432C125.257 37.432 123.997 37.192 123.013 36.712C122.029 36.208 121.297 35.548 120.817 34.732C120.337 33.916 120.097 33.016 120.097 32.032C120.097 30.376 120.745 29.032 122.041 28C123.337 26.968 125.281 26.452 127.873 26.452H132.409V26.02C132.409 24.796 132.061 23.896 131.365 23.32C130.669 22.744 129.805 22.456 128.773 22.456C127.837 22.456 127.021 22.684 126.325 23.14C125.629 23.572 125.197 24.22 125.029 25.084H120.529C120.649 23.788 121.081 22.66 121.825 21.7C122.593 20.74 123.577 20.008 124.777 19.504C125.977 18.976 127.321 18.712 128.809 18.712C131.353 18.712 133.357 19.348 134.821 20.62C136.285 21.892 137.017 23.692 137.017 26.02V37H133.093L132.661 34.12C132.133 35.08 131.389 35.872 130.429 36.496C129.493 37.12 128.281 37.432 126.793 37.432ZM127.837 33.832C129.157 33.832 130.177 33.4 130.897 32.536C131.641 31.672 132.109 30.604 132.301 29.332H128.377C127.153 29.332 126.277 29.56 125.749 30.016C125.221 30.448 124.957 30.988 124.957 31.636C124.957 32.332 125.221 32.872 125.749 33.256C126.277 33.64 126.973 33.832 127.837 33.832ZM141.414 37V11.08H146.022V37H141.414ZM168.021 37.432C166.173 37.432 164.541 37.12 163.125 36.496C161.709 35.848 160.593 34.936 159.777 33.76C158.961 32.56 158.541 31.108 158.517 29.404H163.377C163.425 30.58 163.845 31.576 164.637 32.392C165.453 33.184 166.569 33.58 167.985 33.58C169.209 33.58 170.181 33.292 170.901 32.716C171.621 32.116 171.981 31.324 171.981 30.34C171.981 29.308 171.657 28.504 171.009 27.928C170.385 27.352 169.545 26.884 168.489 26.524C167.433 26.164 166.305 25.78 165.105 25.372C163.161 24.7 161.673 23.836 160.641 22.78C159.633 21.724 159.129 20.32 159.129 18.568C159.105 17.08 159.453 15.808 160.173 14.752C160.917 13.672 161.925 12.844 163.197 12.268C164.469 11.668 165.933 11.368 167.589 11.368C169.269 11.368 170.745 11.668 172.017 12.268C173.313 12.868 174.321 13.708 175.041 14.788C175.785 15.868 176.181 17.152 176.229 18.64H171.297C171.273 17.752 170.925 16.972 170.253 16.3C169.605 15.604 168.693 15.256 167.517 15.256C166.509 15.232 165.657 15.484 164.961 16.012C164.289 16.516 163.953 17.26 163.953 18.244C163.953 19.084 164.217 19.756 164.745 20.26C165.273 20.74 165.993 21.148 166.905 21.484C167.817 21.82 168.861 22.18 170.037 22.564C171.285 22.996 172.425 23.5 173.457 24.076C174.489 24.652 175.317 25.42 175.941 26.38C176.565 27.316 176.877 28.528 176.877 30.016C176.877 31.336 176.541 32.56 175.869 33.688C175.197 34.816 174.201 35.728 172.881 36.424C171.561 37.096 169.941 37.432 168.021 37.432ZM189.465 37.432C187.665 37.432 186.069 37.048 184.677 36.28C183.285 35.512 182.193 34.432 181.401 33.04C180.609 31.648 180.213 30.04 180.213 28.216C180.213 26.368 180.597 24.724 181.365 23.284C182.157 21.844 183.237 20.728 184.605 19.936C185.997 19.12 187.629 18.712 189.501 18.712C191.253 18.712 192.801 19.096 194.145 19.864C195.489 20.632 196.533 21.688 197.277 23.032C198.045 24.352 198.429 25.828 198.429 27.46C198.429 27.724 198.417 28 198.393 28.288C198.393 28.576 198.381 28.876 198.357 29.188H184.785C184.881 30.58 185.361 31.672 186.225 32.464C187.113 33.256 188.181 33.652 189.429 33.652C190.365 33.652 191.145 33.448 191.769 33.04C192.417 32.608 192.897 32.056 193.209 31.384H197.889C197.553 32.512 196.989 33.544 196.197 34.48C195.429 35.392 194.469 36.112 193.317 36.64C192.189 37.168 190.905 37.432 189.465 37.432ZM189.501 22.456C188.373 22.456 187.377 22.78 186.513 23.428C185.649 24.052 185.097 25.012 184.857 26.308H193.749C193.677 25.132 193.245 24.196 192.453 23.5C191.661 22.804 190.677 22.456 189.501 22.456ZM202.305 37V19.144H206.373L206.733 22.168C207.285 21.112 208.077 20.272 209.109 19.648C210.165 19.024 211.401 18.712 212.817 18.712C215.025 18.712 216.741 19.408 217.965 20.8C219.189 22.192 219.801 24.232 219.801 26.92V37H215.193V27.352C215.193 25.816 214.881 24.64 214.257 23.824C213.633 23.008 212.661 22.6 211.341 22.6C210.045 22.6 208.977 23.056 208.137 23.968C207.321 24.88 206.913 26.152 206.913 27.784V37H202.305ZM231.587 37.432C230.003 37.432 228.611 37.18 227.411 36.676C226.211 36.148 225.251 35.428 224.531 34.516C223.811 33.604 223.379 32.548 223.235 31.348H227.879C228.023 32.044 228.407 32.644 229.031 33.148C229.679 33.628 230.507 33.868 231.515 33.868C232.523 33.868 233.255 33.664 233.711 33.256C234.191 32.848 234.431 32.38 234.431 31.852C234.431 31.084 234.095 30.568 233.423 30.304C232.751 30.016 231.815 29.74 230.615 29.476C229.847 29.308 229.067 29.104 228.275 28.864C227.483 28.624 226.751 28.324 226.079 27.964C225.431 27.58 224.903 27.1 224.495 26.524C224.087 25.924 223.883 25.192 223.883 24.328C223.883 22.744 224.507 21.412 225.755 20.332C227.027 19.252 228.803 18.712 231.083 18.712C233.195 18.712 234.875 19.204 236.123 20.188C237.395 21.172 238.151 22.528 238.391 24.256H234.035C233.771 22.936 232.775 22.276 231.047 22.276C230.183 22.276 229.511 22.444 229.031 22.78C228.575 23.116 228.347 23.536 228.347 24.04C228.347 24.568 228.695 24.988 229.391 25.3C230.087 25.612 231.011 25.9 232.163 26.164C233.411 26.452 234.551 26.776 235.583 27.136C236.639 27.472 237.479 27.988 238.103 28.684C238.727 29.356 239.039 30.328 239.039 31.6C239.063 32.704 238.775 33.7 238.175 34.588C237.575 35.476 236.711 36.172 235.583 36.676C234.455 37.18 233.123 37.432 231.587 37.432ZM251.797 37.432C249.997 37.432 248.401 37.048 247.009 36.28C245.617 35.512 244.525 34.432 243.733 33.04C242.941 31.648 242.545 30.04 242.545 28.216C242.545 26.368 242.929 24.724 243.697 23.284C244.489 21.844 245.569 20.728 246.937 19.936C248.329 19.12 249.961 18.712 251.833 18.712C253.585 18.712 255.133 19.096 256.477 19.864C257.821 20.632 258.865 21.688 259.609 23.032C260.377 24.352 260.761 25.828 260.761 27.46C260.761 27.724 260.749 28 260.725 28.288C260.725 28.576 260.713 28.876 260.689 29.188H247.117C247.213 30.58 247.693 31.672 248.557 32.464C249.445 33.256 250.513 33.652 251.761 33.652C252.697 33.652 253.477 33.448 254.101 33.04C254.749 32.608 255.229 32.056 255.541 31.384H260.221C259.885 32.512 259.321 33.544 258.529 34.48C257.761 35.392 256.801 36.112 255.649 36.64C254.521 37.168 253.237 37.432 251.797 37.432ZM251.833 22.456C250.705 22.456 249.709 22.78 248.845 23.428C247.981 24.052 247.429 25.012 247.189 26.308H256.081C256.009 25.132 255.577 24.196 254.785 23.5C253.993 22.804 253.009 22.456 251.833 22.456ZM267.121 16.372C266.281 16.372 265.585 16.12 265.033 15.616C264.505 15.112 264.241 14.476 264.241 13.708C264.241 12.94 264.505 12.316 265.033 11.836C265.585 11.332 266.281 11.08 267.121 11.08C267.961 11.08 268.645 11.332 269.173 11.836C269.725 12.316 270.001 12.94 270.001 13.708C270.001 14.476 269.725 15.112 269.173 15.616C268.645 16.12 267.961 16.372 267.121 16.372ZM264.817 37V19.144H269.425V37H264.817Z" fill="#02073E"/>
<g clip-path="url(#clip0_43_53)">
<path d="M47.9167 10.4167H42.5292L47.3063 5.63958C47.6858 5.24666 47.8958 4.72041 47.891 4.17416C47.8863 3.62792 47.6672 3.10539 47.2809 2.71913C46.8946 2.33286 46.3721 2.11376 45.8259 2.10901C45.2796 2.10427 44.7534 2.31425 44.3604 2.69375L39.5834 7.47083V2.08333C39.5834 1.5308 39.3639 1.0009 38.9732 0.610194C38.5825 0.219493 38.0526 0 37.5 0C36.9475 0 36.4176 0.219493 36.0269 0.610194C35.6362 1.0009 35.4167 1.5308 35.4167 2.08333V11.3667C33.7114 9.55127 31.6984 8.05179 29.4709 6.9375C27.9236 6.2543 26.1966 6.09109 24.5488 6.47234C22.901 6.85358 21.4212 7.75874 20.3313 9.05208L26.4729 15.1937C26.8524 15.5867 27.0624 16.1129 27.0577 16.6592C27.0529 17.2054 26.8338 17.7279 26.4476 18.1142C26.0613 18.5005 25.5388 18.7196 24.9925 18.7243C24.4463 18.7291 23.92 18.5191 23.5271 18.1396L17.7521 12.3667C15.3834 15.8437 12.2084 21.25 9.0292 26.9167L13.973 31.8604C14.3524 32.2533 14.5624 32.7796 14.5577 33.3258C14.5529 33.8721 14.3338 34.3946 13.9476 34.7809C13.5613 35.1671 13.0388 35.3862 12.4925 35.391C11.9463 35.3957 11.42 35.1857 11.0271 34.8063L6.92087 30.7C4.61462 34.8792 2.40837 38.9833 0.625035 42.3312C0.118763 43.3166 -0.0616529 44.4372 0.10978 45.5316C0.281213 46.626 0.795644 47.6378 1.57896 48.4211C2.36227 49.2044 3.37402 49.7188 4.46845 49.8903C5.56287 50.0617 6.68347 49.8813 7.66878 49.375C13.5542 46.25 21.7563 41.8062 28.6167 37.8125L23.5271 32.7229C23.1476 32.33 22.9376 31.8037 22.9424 31.2575C22.9471 30.7113 23.1662 30.1887 23.5525 29.8025C23.9388 29.4162 24.4613 29.1971 25.0075 29.1923C25.5538 29.1876 26.08 29.3976 26.4729 29.7771L32.3167 35.625C35.3456 33.9336 38.2119 31.9662 40.8792 29.7479C42.1971 28.6599 43.1237 27.1713 43.5182 25.5085C43.9127 23.8456 43.7534 22.0995 43.0646 20.5354C41.9493 18.3061 40.4492 16.2912 38.6334 14.5833H47.9167C48.4692 14.5833 48.9991 14.3638 49.3898 13.9731C49.7805 13.5824 50 13.0525 50 12.5C50 11.9475 49.7805 11.4176 49.3898 11.0269C48.9991 10.6362 48.4692 10.4167 47.9167 10.4167Z" fill="#FB8A4D"/>
</g>
<defs>
<clipPath id="clip0_43_53">
<rect width="50" height="50" fill="white"/>
</clipPath>
</defs>
</svg>
