<svg width="512" height="341" viewBox="0 0 512 341" fill="none" xmlns="http://www.w3.org/2000/svg">
<path d="M374.43 124.15H140.53C131.61 124.15 124.35 116.89 124.35 107.97C124.35 99.05 131.61 91.79 140.53 91.79H374.43C383.35 91.79 390.61 99.05 390.61 107.97C390.61 116.89 383.35 124.15 374.43 124.15ZM140.53 93.79C132.71 93.79 126.35 100.15 126.35 107.97C126.35 115.79 132.71 122.15 140.53 122.15H374.43C382.25 122.15 388.61 115.79 388.61 107.97C388.61 100.15 382.25 93.79 374.43 93.79H140.53Z" fill="#D3D3D3"/>
<path d="M374.43 313.5H140.53C131.88 313.5 124.85 306.47 124.85 297.82C124.85 289.17 131.88 282.14 140.53 282.14H374.43C383.08 282.14 390.11 289.17 390.11 297.82C390.11 306.47 383.08 313.5 374.43 313.5Z" fill="#FB8A4D"/>
<path d="M297.78 60.36H136.68C128.03 60.36 121 53.33 121 44.68C121 36.03 128.03 29 136.68 29H297.78C306.43 29 313.46 36.03 313.46 44.68C313.46 53.33 306.43 60.36 297.78 60.36Z" fill="#D3D3D3"/>
<path d="M374.43 187.43H140.53C131.61 187.43 124.35 180.17 124.35 171.25C124.35 162.33 131.61 155.07 140.53 155.07H374.43C383.35 155.07 390.61 162.33 390.61 171.25C390.61 180.17 383.35 187.43 374.43 187.43ZM140.53 157.07C132.71 157.07 126.35 163.43 126.35 171.25C126.35 179.07 132.71 185.43 140.53 185.43H374.43C382.25 185.43 388.61 179.07 388.61 171.25C388.61 163.43 382.25 157.07 374.43 157.07H140.53Z" fill="#D3D3D3"/>
<path d="M374.43 250.72H140.53C131.61 250.72 124.35 243.46 124.35 234.54C124.35 225.62 131.61 218.36 140.53 218.36H374.43C383.35 218.36 390.61 225.62 390.61 234.54C390.61 243.46 383.35 250.72 374.43 250.72ZM140.53 220.36C132.71 220.36 126.35 226.72 126.35 234.54C126.35 242.36 132.71 248.72 140.53 248.72H374.43C382.25 248.72 388.61 242.36 388.61 234.54C388.61 226.72 382.25 220.36 374.43 220.36H140.53Z" fill="#D3D3D3"/>
<path d="M132.49 80.1699H193.79C195.25 80.1699 196.44 81.3499 196.44 82.8199C196.44 84.2799 195.25 85.4699 193.79 85.4699H132.49C131.03 85.4699 129.84 84.2899 129.84 82.8199C129.84 81.3599 131.03 80.1699 132.49 80.1699Z" fill="#D3D3D3"/>
<path d="M132.49 144.95H193.79C195.25 144.95 196.44 146.13 196.44 147.59C196.44 149.05 195.25 150.24 193.79 150.24H132.49C131.03 150.24 129.84 149.06 129.84 147.6C129.84 146.14 131.03 144.95 132.49 144.95Z" fill="#D3D3D3"/>
<path d="M132.49 209.74H193.79C195.25 209.74 196.44 210.92 196.44 212.39C196.44 213.85 195.25 215.03 193.79 215.03H132.49C131.03 215.03 129.84 213.85 129.84 212.38C129.84 210.92 131.03 209.74 132.49 209.74Z" fill="#D3D3D3"/>
</svg>
