<svg width="512" height="341" viewBox="0 0 512 341" fill="none" xmlns="http://www.w3.org/2000/svg">
<g clip-path="url(#clip0_47_76)">
<g clip-path="url(#clip1_47_76)">
<path d="M356.378 76.2838C355.644 74.121 346.447 66.7691 352.083 65.5334L356.704 71.6879L377.954 50.4673L380.091 52.6016L356.378 76.2838Z" fill="#FB8A4D"/>
<path d="M356.378 148.443C355.644 146.28 346.447 138.928 352.083 137.692L356.704 143.847L377.954 122.626L380.091 124.761L356.378 148.443Z" fill="#FB8A4D"/>
<path d="M356.378 221.633C355.644 219.47 346.447 212.118 352.083 210.882L356.704 217.037L377.954 195.816L380.091 197.951L356.378 221.633Z" fill="#FB8A4D"/>
<path d="M336.81 162.461C340.432 162.461 343.367 159.529 343.367 155.912C343.367 152.296 340.432 149.364 336.81 149.364C333.189 149.364 330.253 152.296 330.253 155.912C330.253 159.529 333.189 162.461 336.81 162.461Z" fill="#3F3D56"/>
<path d="M336.81 91.0833C340.432 91.0833 343.367 88.1515 343.367 84.5349C343.367 80.9184 340.432 77.9866 336.81 77.9866C333.189 77.9866 330.253 80.9184 330.253 84.5349C330.253 88.1515 333.189 91.0833 336.81 91.0833Z" fill="#3F3D56"/>
<path d="M505 69.4736H399.431V70.7833H505V69.4736Z" fill="#3F3D56"/>
<path d="M340.089 238.549C343.71 238.549 346.646 235.617 346.646 232C346.646 228.384 343.71 225.452 340.089 225.452C336.467 225.452 333.532 228.384 333.532 232C333.532 235.617 336.467 238.549 340.089 238.549Z" fill="#3F3D56"/>
<path d="M505 141.633H399.431V142.942H505V141.633Z" fill="#3F3D56"/>
<path d="M505 214.823H399.431V216.132H505V214.823Z" fill="#3F3D56"/>
<path d="M372.939 231.39H340.153V197.993H362.447V199.303H341.465V230.08H371.627V215.019H372.939V231.39Z" fill="#3F3D56"/>
<path d="M372.939 158.048H340.153V124.651H362.447V125.961H341.465V156.738H371.627V141.677H372.939V158.048Z" fill="#3F3D56"/>
<path d="M372.939 83.3967H340.153V50H362.447V51.3097H341.465V82.087H371.627V67.0258H372.939V83.3967Z" fill="#3F3D56"/>
<path d="M158.878 169.031C158.878 169.031 150.116 205.977 160.826 205.977C171.535 205.977 196.848 164.169 196.848 164.169L188.086 153.474L172.359 175.28L171.535 164.169L158.878 169.031Z" fill="#A0616A"/>
<path d="M194.513 165.776C199.221 165.776 203.037 161.964 203.037 157.263C203.037 152.561 199.221 148.75 194.513 148.75C189.805 148.75 185.989 152.561 185.989 157.263C185.989 161.964 189.805 165.776 194.513 165.776Z" fill="#A0616A"/>
<path d="M78.0905 236.057C78.0905 236.057 73.556 290.506 72.5825 302.173C71.9149 309.487 70.278 316.68 67.7146 323.564C67.7146 323.564 65.7674 327.453 65.7674 331.342L43.6996 371.394C43.6996 371.394 36.9561 376.344 37.9297 380.234C38.9032 384.123 33.8639 386.456 33.8639 386.456L57.1034 390.929C57.1034 390.929 56.1298 388.012 59.0505 387.039C61.9713 386.067 64.2962 377.634 64.2962 377.634L96.922 324.536L120.288 275.922C120.288 275.922 133.918 319.675 136.839 324.536C136.839 324.536 147.548 378.984 149.495 383.845C151.442 388.707 152.416 388.707 151.442 390.651C150.469 392.596 150.469 394.54 151.442 395.512C152.416 396.485 170.914 395.512 170.914 395.512L166.046 326.481L157.284 243.837L112.499 230.225L78.0905 236.057Z" fill="url(#paint0_linear_47_76)"/>
<path d="M121.937 106.075C133.229 106.075 142.382 96.9334 142.382 85.6569C142.382 74.3804 133.229 65.239 121.937 65.239C110.646 65.239 101.492 74.3804 101.492 85.6569C101.492 96.9334 110.646 106.075 121.937 106.075Z" fill="#A0616A"/>
<path d="M159.231 135.913L134.892 121.187C134.892 121.187 134.218 112.042 127.283 111.612C123.801 111.396 118.577 111.066 110.736 110.561C109.079 110.454 107.961 119.507 106.062 119.385L80.3711 126.191L84.2654 192.306C84.2654 192.306 78.4239 218.557 80.3711 223.419C82.3182 228.28 75.5032 230.225 77.4503 231.197C79.3975 232.169 77.4503 238.975 77.4503 238.975C77.4503 238.975 115.42 258.421 157.284 243.837L153.389 231.197C153.919 229.545 154.019 227.785 153.678 226.083C153.337 224.382 152.568 222.796 151.442 221.474C151.442 221.474 155.337 215.64 150.469 210.779C150.469 210.779 152.416 202.028 147.548 198.139L146.574 184.527L149.495 177.721L159.231 135.913Z" fill="#E6E6E6"/>
<path d="M104.196 97.3211L103.624 95.9954C103.551 95.8241 96.3204 78.7542 102.729 68.225C105.696 63.3505 111.091 60.5984 118.762 60.0459C130.767 59.1791 138.983 62.0229 143.188 68.4923C143.894 69.5887 144.29 70.8547 144.336 72.157C144.382 73.4593 144.075 74.7499 143.449 75.8931C142.823 77.0363 141.899 77.9899 140.776 78.6535C139.653 79.3172 138.372 79.6664 137.067 79.6645H136.906L134.7 76.8044L134.572 77.0825C133.773 78.8079 131.939 79.7524 129.791 79.5455C129.426 79.5193 129.102 79.8343 128.842 80.5083C128.755 80.8031 128.59 81.069 128.364 81.278C128.138 81.4871 127.86 81.6315 127.559 81.6962C125.972 82.0047 123.709 80.0082 122.697 79.0132C122.658 79.2422 122.57 79.4602 122.439 79.6524C122.308 79.8445 122.138 80.0065 121.939 80.1272C120.872 80.7421 119.211 79.9388 118.735 79.6831C114.937 80.4888 112.479 80.2733 111.426 79.0432C110.712 84.0878 109.179 93.168 107.342 93.6712C107.15 93.7153 106.949 93.6966 106.768 93.6178C106.588 93.539 106.437 93.4042 106.339 93.2335C105.897 92.6599 105.501 92.374 105.254 92.4543C104.657 92.6442 104.304 94.61 104.253 95.8788L104.196 97.3211Z" fill="#2F2E41"/>
<path d="M148.522 136.886L158.234 135.31C165.23 142.023 169.995 150.717 171.888 160.22C174.808 175.777 175.782 178.694 175.782 178.694L152.416 184.527L139.759 160.22L148.522 136.886Z" fill="#E6E6E6"/>
<path d="M105.426 157.12L99.4246 233.103L252.589 245.169L258.591 169.186L105.426 157.12Z" fill="white"/>
<path d="M121.79 163.007C118.042 160.334 113.283 160.14 111.465 160.179C112.02 161.908 113.743 166.342 117.491 169.016C121.249 171.696 126.002 171.883 127.817 171.846C127.263 170.118 125.539 165.682 121.79 163.007Z" fill="#FB8A4D"/>
<path d="M136.577 211.357L111.983 209.419C111.256 209.362 110.525 209.448 109.832 209.673C109.139 209.898 108.497 210.257 107.942 210.729C107.388 211.202 106.932 211.779 106.601 212.428C106.27 213.076 106.07 213.784 106.013 214.509C105.956 215.235 106.042 215.965 106.267 216.657C106.492 217.35 106.852 217.991 107.325 218.545C107.798 219.098 108.376 219.553 109.026 219.884C109.675 220.215 110.383 220.414 111.11 220.472L135.704 222.409C137.171 222.525 138.625 222.053 139.744 221.099C140.864 220.144 141.558 218.784 141.674 217.319C141.79 215.853 141.318 214.402 140.362 213.283C139.406 212.165 138.044 211.472 136.577 211.357Z" fill="#FB8A4D"/>
<path d="M252.553 161.8L114.663 150.936C113.059 150.81 111.446 151.001 109.916 151.497C108.386 151.994 106.969 152.786 105.746 153.83C104.522 154.873 103.517 156.147 102.786 157.578C102.056 159.01 101.615 160.571 101.489 162.173L96.1857 229.261C95.9308 232.497 96.973 235.701 99.0832 238.17C101.193 240.638 104.199 242.169 107.439 242.425L245.328 253.288C246.932 253.414 248.545 253.224 250.075 252.727C251.605 252.231 253.022 251.438 254.246 250.395C255.469 249.352 256.475 248.078 257.205 246.646C257.935 245.215 258.376 243.654 258.503 242.052L263.542 178.287L263.643 176.984L263.804 174.957C263.93 173.355 263.739 171.744 263.242 170.216C262.745 168.688 261.952 167.273 260.907 166.051C259.862 164.83 258.587 163.825 257.153 163.096C255.72 162.367 254.156 161.926 252.553 161.8ZM248.481 220.171L247.607 231.224C247.447 233.176 246.52 234.985 245.028 236.257C243.536 237.528 241.601 238.158 239.646 238.008L221.198 236.557C219.244 236.397 217.432 235.471 216.159 233.981C214.885 232.492 214.255 230.559 214.405 228.606L215.278 217.553C215.439 215.601 216.366 213.792 217.858 212.521C219.35 211.25 221.284 210.62 223.24 210.769L241.681 212.222C243.635 212.382 245.447 213.308 246.721 214.797C247.995 216.286 248.628 218.218 248.481 220.171ZM104.792 214.408C104.936 212.619 105.783 210.96 107.15 209.795C108.516 208.63 110.289 208.054 112.08 208.193L136.673 210.131C137.561 210.2 138.428 210.443 139.222 210.845C140.016 211.248 140.724 211.804 141.303 212.48C141.882 213.156 142.323 213.939 142.599 214.785C142.875 215.631 142.981 216.523 142.912 217.411C142.843 218.298 142.599 219.163 142.195 219.956C141.791 220.749 141.234 221.454 140.557 222.032C139.879 222.611 139.095 223.05 138.247 223.325C137.4 223.6 136.506 223.705 135.618 223.635L135.606 223.639L111.013 221.7C110.124 221.63 109.259 221.386 108.465 220.981C107.672 220.576 106.966 220.019 106.388 219.342C105.81 218.665 105.372 217.88 105.098 217.034C104.824 216.187 104.721 215.295 104.792 214.408ZM110.057 159.741L109.889 159.054L110.597 158.989C110.873 158.959 117.415 158.373 122.508 162.005C127.6 165.638 129.162 172.012 129.229 172.279L129.391 172.967L128.685 173.038C127.683 173.113 126.677 173.106 125.676 173.018C122.493 172.832 119.418 171.795 116.773 170.015C111.68 166.383 110.119 160.009 110.057 159.741Z" fill="#FB8A4D"/>
<path d="M227.793 227.501L219.8 226.871C219.23 226.828 218.665 227.011 218.231 227.383C217.796 227.754 217.527 228.282 217.482 228.851C217.437 229.421 217.62 229.985 217.991 230.419C218.362 230.854 218.89 231.124 219.46 231.17L227.453 231.799C228.023 231.843 228.588 231.659 229.022 231.288C229.457 230.917 229.726 230.389 229.771 229.819C229.816 229.25 229.633 228.686 229.262 228.252C228.891 227.817 228.363 227.547 227.793 227.501Z" fill="#FB8A4D"/>
<path d="M242.549 228.664L234.556 228.034C233.986 227.99 233.422 228.174 232.988 228.546C232.554 228.917 232.285 229.445 232.24 230.014C232.195 230.583 232.378 231.147 232.748 231.581C233.119 232.016 233.647 232.286 234.216 232.332L242.21 232.962C242.779 233.005 243.343 232.821 243.778 232.45C244.212 232.079 244.481 231.551 244.526 230.982C244.571 230.413 244.388 229.849 244.017 229.414C243.647 228.98 243.119 228.71 242.549 228.664Z" fill="#FB8A4D"/>
<path d="M228.229 221.975L220.236 221.345C219.666 221.302 219.102 221.486 218.668 221.857C218.234 222.228 217.965 222.756 217.92 223.325C217.875 223.894 218.058 224.458 218.428 224.893C218.799 225.327 219.327 225.597 219.897 225.643L227.89 226.273C228.46 226.317 229.024 226.133 229.459 225.762C229.893 225.391 230.163 224.863 230.208 224.293C230.253 223.724 230.07 223.16 229.699 222.725C229.328 222.291 228.799 222.021 228.229 221.975Z" fill="#FB8A4D"/>
<path d="M242.986 223.137L234.993 222.508C234.422 222.464 233.858 222.648 233.423 223.019C232.989 223.39 232.72 223.918 232.675 224.488C232.63 225.057 232.813 225.621 233.184 226.055C233.555 226.49 234.083 226.76 234.653 226.806L242.646 227.436C243.216 227.479 243.78 227.296 244.215 226.924C244.65 226.553 244.919 226.025 244.964 225.456C245.009 224.886 244.826 224.322 244.455 223.888C244.084 223.453 243.556 223.183 242.986 223.137Z" fill="#FB8A4D"/>
<path d="M228.666 216.449L220.673 215.819C220.103 215.775 219.538 215.959 219.104 216.33C218.669 216.701 218.4 217.23 218.355 217.799C218.31 218.368 218.493 218.932 218.864 219.367C219.235 219.801 219.763 220.071 220.333 220.117L228.326 220.747C228.896 220.79 229.46 220.606 229.894 220.235C230.329 219.864 230.598 219.336 230.643 218.767C230.688 218.198 230.505 217.634 230.134 217.2C229.763 216.765 229.235 216.495 228.666 216.449Z" fill="#FB8A4D"/>
<path d="M243.422 217.611L235.429 216.981C234.859 216.938 234.295 217.122 233.861 217.493C233.427 217.864 233.157 218.392 233.113 218.961C233.068 219.531 233.25 220.094 233.621 220.529C233.992 220.963 234.52 221.233 235.089 221.28L243.082 221.909C243.652 221.953 244.216 221.769 244.651 221.398C245.085 221.026 245.354 220.498 245.399 219.929C245.444 219.36 245.261 218.797 244.89 218.362C244.52 217.928 243.992 217.657 243.422 217.611Z" fill="#FB8A4D"/>
<path d="M99.4391 183.341L99.3364 184.647L261.2 197.346L261.303 196.039L99.4391 183.341Z" fill="white"/>
<path d="M263.643 176.984L263.542 178.287L257.909 177.846L197.889 173.137L197.998 171.833L258.01 176.543L263.643 176.984Z" fill="#3F3D56"/>
<path d="M65.7674 163.137C65.7674 163.137 57.0052 200.084 67.7146 200.084C78.424 200.084 103.737 158.276 103.737 158.276L94.9748 147.581L79.2475 169.387L78.4239 158.276L65.7674 163.137Z" fill="#A0616A"/>
<path d="M101.402 159.882C106.11 159.882 109.926 156.071 109.926 151.369C109.926 146.668 106.11 142.856 101.402 142.856C96.6943 142.856 92.8779 146.668 92.8779 151.369C92.8779 156.071 96.6943 159.882 101.402 159.882Z" fill="#A0616A"/>
<path d="M87.4633 132.024L81.6218 126.191C81.6218 126.191 69.9388 132.997 68.9652 139.802C67.9917 146.608 63.1238 167.999 63.1238 167.999L81.135 169.457L86.9765 160.707L87.4633 132.024Z" fill="#E6E6E6"/>
</g>
</g>
<defs>
<linearGradient id="paint0_linear_47_76" x1="102" y1="252.5" x2="102" y2="323.5" gradientUnits="userSpaceOnUse">
<stop stop-color="#2F2E41"/>
<stop offset="1" stop-color="#2F2E41" stop-opacity="0"/>
</linearGradient>
<clipPath id="clip0_47_76">
<rect width="512" height="341" fill="white"/>
</clipPath>
<clipPath id="clip1_47_76">
<rect width="593" height="384" fill="white" transform="translate(-88 50)"/>
</clipPath>
</defs>
</svg>
