<svg width="512" height="341" viewBox="0 0 512 341" fill="none" xmlns="http://www.w3.org/2000/svg">
<path d="M185.734 128.069C185.769 119.668 178.608 112.796 170.203 112.796H92.2071C83.9346 112.796 76.7873 119.554 76.6904 127.822C76.6604 130.172 77.1769 132.497 78.199 134.613C79.2211 136.73 80.7211 138.58 82.5806 140.018C83.0572 140.373 83.4323 140.847 83.6684 141.392C83.9044 141.938 83.9932 142.535 83.9257 143.126C83.8352 143.795 83.7899 144.471 83.7899 145.147V199.071C83.7899 201.056 84.1811 203.021 84.941 204.855C85.7009 206.689 86.8148 208.355 88.219 209.758C89.6231 211.162 91.2901 212.275 93.1248 213.035C94.9594 213.794 96.9258 214.185 98.9116 214.185H163.004C167.015 214.185 170.861 212.593 173.697 209.758C176.533 206.924 178.126 203.079 178.126 199.071V145.147C178.126 144.555 178.092 143.964 178.023 143.377C177.962 142.795 178.057 142.207 178.3 141.675C178.543 141.143 178.923 140.685 179.403 140.35C181.354 138.949 182.946 137.105 184.046 134.971C185.147 132.836 185.725 130.471 185.734 128.069Z" fill="#3F3D56"/>
<path d="M182.356 126.59C181.967 123.665 180.521 120.983 178.292 119.049C176.062 117.116 173.201 116.064 170.249 116.091H92.1838C89.4241 116.067 86.7385 116.984 84.5706 118.69C82.4027 120.397 80.882 122.792 80.2599 125.48C79.7272 127.95 79.9927 130.525 81.0181 132.835C82.0435 135.144 83.7759 137.069 85.9657 138.331C86.5979 138.692 87.0919 139.254 87.3701 139.926C87.6483 140.599 87.6949 141.345 87.5025 142.047C87.2255 143.058 87.0856 144.101 87.0866 145.15V199.068C87.087 201.824 88.05 204.493 89.8094 206.614C91.5688 208.735 94.0141 210.176 96.7231 210.687C97.4457 210.822 98.1791 210.89 98.9141 210.89H163.007C164.089 210.892 165.166 210.743 166.207 210.449C168.688 209.751 170.873 208.262 172.43 206.209C173.986 204.155 174.829 201.65 174.829 199.073V145.144C174.829 144.163 174.707 143.186 174.464 142.235C174.398 141.971 174.364 141.7 174.363 141.429C174.363 140.832 174.526 140.248 174.833 139.737C175.14 139.226 175.581 138.809 176.107 138.529L176.112 138.524C178.236 137.397 179.97 135.654 181.084 133.524C182.198 131.394 182.642 128.977 182.356 126.59Z" fill="#FB8A4D"/>
<path opacity="0.2" d="M174.829 150.31V145.241H166.207V116.091H161.135V145.241H134.001V116.091H128.929V145.241H101.795V116.091H96.7232V145.241H87.0867V150.31H96.7231V165.518H87.0867V170.588H96.7231V185.796H87.0867V190.866H96.7231V210.687C97.4457 210.822 98.1791 210.89 98.9142 210.89H101.795V190.866H128.929V210.89H134.001V190.866H161.135V210.89H163.007C164.089 210.892 165.166 210.743 166.207 210.449V190.866H174.829V185.796H166.207V170.588H174.829V165.518H166.207V150.31H174.829ZM101.795 150.31H128.929V165.518H101.795V150.31ZM101.795 185.796V170.588H128.929V185.796H101.795ZM161.135 185.796H134.001V170.588H161.135V185.796ZM161.135 165.518H134.001V150.31H161.135V165.518Z" fill="black"/>
<path d="M185.378 0C185.378 7.10994 183.977 14.1503 181.255 20.719C178.533 27.2877 174.543 33.2562 169.513 38.2837C164.483 43.3112 158.512 47.2992 151.94 50.0201C145.369 52.741 138.325 54.1414 131.212 54.1414C124.098 54.1414 117.055 52.741 110.483 50.0201C103.911 47.2992 97.9398 43.3112 92.91 38.2837C87.8801 33.2562 83.8902 27.2877 81.1681 20.719C78.446 14.1503 77.0449 7.10994 77.0449 0H185.378Z" fill="#FB8A4D"/>
<path d="M96.9167 9.61101C96.9167 11.0265 96.4144 12.1739 95.7949 12.1739C95.1753 12.1739 94.6731 11.0265 94.6731 9.61101C94.7412 8.65322 95.1373 7.74812 95.7949 7.0481C96.4524 7.74812 96.8486 8.65322 96.9167 9.61101Z" fill="#3F3D56"/>
<path d="M153.648 18.581C153.648 19.9964 153.145 21.1439 152.526 21.1439C151.906 21.1439 151.404 19.9964 151.404 18.581C151.472 17.6232 151.868 16.7181 152.526 16.0181C153.183 16.7181 153.579 17.6232 153.648 18.581Z" fill="#3F3D56"/>
<path d="M111.981 13.4552C111.981 14.8707 111.479 16.0182 110.859 16.0182C110.239 16.0182 109.737 14.8707 109.737 13.4552C109.805 12.4975 110.201 11.5924 110.859 10.8923C111.517 11.5924 111.913 12.4975 111.981 13.4552Z" fill="#3F3D56"/>
<path d="M134.417 33.6381C134.417 35.0535 133.914 36.201 133.295 36.201C132.675 36.201 132.173 35.0535 132.173 33.6381C132.241 32.6803 132.637 31.7752 133.295 31.0752C133.952 31.7752 134.349 32.6803 134.417 33.6381Z" fill="#3F3D56"/>
<path d="M110.378 31.0751C110.378 32.4906 109.876 33.638 109.256 33.638C108.637 33.638 108.135 32.4906 108.135 31.0751C108.203 30.1173 108.599 29.2122 109.256 28.5122C109.914 29.2122 110.31 30.1173 110.378 31.0751Z" fill="#3F3D56"/>
<path d="M166.468 7.04801C166.468 8.46347 165.966 9.61093 165.346 9.61093C164.727 9.61093 164.224 8.46347 164.224 7.04801C164.292 6.09022 164.689 5.18513 165.346 4.48511C166.004 5.18513 166.4 6.09022 166.468 7.04801Z" fill="#3F3D56"/>
<path d="M145.955 38.7638C145.955 40.1793 145.453 41.3267 144.833 41.3267C144.214 41.3267 143.712 40.1793 143.712 38.7638C143.78 37.806 144.176 36.901 144.833 36.2009C145.491 36.901 145.887 37.806 145.955 38.7638Z" fill="#3F3D56"/>
<path d="M131.212 57.1848C116.043 57.1676 101.501 51.1373 90.7758 40.4168C80.0503 29.6963 74.0172 15.1611 74 0H80.0897C80.0897 6.71027 81.412 13.3548 83.9811 19.5543C86.5502 25.7538 90.3158 31.3868 95.0629 36.1317C99.81 40.8766 105.446 44.6404 111.648 47.2083C117.85 49.7762 124.498 51.0979 131.212 51.0979C137.925 51.0979 144.573 49.7762 150.775 47.2083C156.977 44.6404 162.613 40.8766 167.36 36.1317C172.107 31.3868 175.873 25.7538 178.442 19.5543C181.011 13.3548 182.333 6.71027 182.333 0H188.423C188.406 15.1611 182.373 29.6963 171.647 40.4168C160.922 51.1373 146.38 57.1676 131.212 57.1848Z" fill="#3F3D56"/>
<path d="M262.992 19.6318H245.063V37.5528H262.992V19.6318Z" fill="#3F3D56"/>
<path d="M438.7 27.6963H294.369V29.4884H438.7V27.6963Z" fill="#3F3D56"/>
<path d="M262.992 154.53H245.063V172.451H262.992V154.53Z" fill="#3F3D56"/>
<path d="M438.7 162.595H294.369V164.387H438.7V162.595Z" fill="#3F3D56"/>
<path d="M262.992 288.491H245.063V306.412H262.992V288.491Z" fill="#3F3D56"/>
<path d="M438.7 296.555H294.369V298.348H438.7V296.555Z" fill="#3F3D56"/>
<path d="M130.608 295.179L96.6663 291.667C96.9271 289.865 96.7269 288.027 96.0843 286.324C95.4417 284.621 94.3778 283.108 92.9918 281.927C91.6058 280.746 89.943 279.936 88.1587 279.572C86.3744 279.207 84.5269 279.301 82.7886 279.844C81.0504 280.387 79.4781 281.361 78.2187 282.676C76.9593 283.991 76.0538 285.603 75.5868 287.362C75.1199 289.122 75.1066 290.971 75.5484 292.737C75.9901 294.503 76.8725 296.128 78.1129 297.461C76.8526 298.821 75.9649 300.484 75.5356 302.288C75.1064 304.092 75.1501 305.976 75.6627 307.758C76.1752 309.54 77.1392 311.16 78.4613 312.461C79.7835 313.761 81.4191 314.699 83.2099 315.183C85.0008 315.667 86.8863 315.681 88.6841 315.223C90.4818 314.766 92.131 313.852 93.4721 312.571C94.8133 311.29 95.8009 309.684 96.3396 307.91C96.8782 306.135 96.9496 304.252 96.5469 302.442L130.608 299.312V295.179Z" fill="#CCCCCC"/>
<path d="M165.124 318.497C178.467 321.776 191.909 312.317 192.605 298.6C192.624 298.219 192.634 297.837 192.634 297.451C192.634 297.066 192.624 296.683 192.605 296.303C191.909 282.586 178.467 273.126 165.124 276.406L119.857 287.532C118.553 287.531 117.262 287.786 116.057 288.284C114.852 288.782 113.756 289.513 112.834 290.434C111.911 291.355 111.179 292.449 110.68 293.653C110.181 294.857 109.924 296.148 109.924 297.451C109.924 298.755 110.181 300.045 110.68 301.25C111.179 302.454 111.911 303.548 112.834 304.469C113.756 305.39 114.852 306.121 116.057 306.618C117.262 307.116 118.553 307.372 119.857 307.371L165.124 318.497Z" fill="#FB8A4D"/>
</svg>
