<svg width="161" height="102" viewBox="0 0 161 102" fill="none" xmlns="http://www.w3.org/2000/svg">
<g clip-path="url(#clip0_2_446)">
<path d="M36.2389 65.7483C34.1902 65.6108 33.236 66.0089 32.6199 66.4143C32.4221 66.5444 32.227 66.6968 32.0426 66.8615C32.9737 64.9759 33.9275 63.0986 34.8994 61.2344C34.9057 61.4847 34.9503 61.6034 35.0604 61.6628C35.3124 61.7986 35.9004 61.3639 37.066 60.489C37.9521 59.8239 38.0653 59.6553 38.1311 59.5398C38.3627 59.1336 38.343 58.7989 38.2003 57.3397C37.944 54.7207 37.878 54.4749 38.0022 53.8565C38.045 53.6435 38.1618 53.1304 38.0789 53.1009C37.9937 53.0707 37.8613 53.609 37.39 53.9602C36.9306 54.3026 36.6073 54.1258 36.1898 54.3462C35.6502 54.631 35.5017 55.2899 35.2783 56.3504C35.0804 57.2896 35.1309 57.6218 35.013 59.3913C34.9796 59.8926 34.9479 60.2826 34.9262 60.5897C34.056 62.2505 33.2021 63.9234 32.3636 65.6028C32.375 65.5567 32.3856 65.5133 32.3949 65.4755C32.6543 64.4138 32.5679 63.9238 32.4375 63.5796C32.2262 63.022 31.8064 62.6881 30.9753 62.0431C30.1608 61.411 29.472 61.0471 28.6441 60.6149C27.559 60.0484 27.0164 59.7651 26.8692 59.8479C26.4996 60.0558 26.5546 61.1454 26.8633 62.5087C26.1605 62.1468 25.7873 61.9772 25.6693 62.0436C25.6184 62.0722 25.5759 62.118 25.5407 62.1784C25.0153 62.1526 24.3189 62.1824 23.5221 62.2867C24.1508 62.0597 24.8573 61.7605 25.6184 61.3523C26.2781 60.9984 26.6073 60.8185 26.5757 60.6697C26.4627 60.1375 21.958 60.1482 18.0964 62.1713C16.2784 63.1238 15.6738 63.9613 15.3612 64.6285C15.2608 64.8428 15.1743 65.0746 15.1035 65.3114C14.9087 63.218 14.7377 61.1199 14.5891 59.0236C14.7257 59.2336 14.8259 59.3116 14.9509 59.3047C15.2368 59.2888 15.5101 58.6113 16.045 57.2571C16.4516 56.2276 16.4597 56.0248 16.4553 55.892C16.4398 55.4249 16.2476 55.1499 15.3612 53.9809C13.7702 51.8826 13.5851 51.7075 13.3669 51.1156C13.2917 50.9118 13.1223 50.4135 13.0362 50.4317C12.9478 50.4504 13.1171 50.9783 12.8995 51.5237C12.6873 52.0553 12.3192 52.0735 12.0789 52.4793C11.7683 53.0038 11.987 53.6429 12.3524 54.6634C12.676 55.5671 12.8931 55.8239 13.72 57.3936C13.9543 57.8382 14.1317 58.1872 14.2741 58.4602C14.4029 60.3299 14.5519 62.2015 14.7174 64.0706C14.703 64.0254 14.6893 63.9829 14.6774 63.9459C14.3421 62.9056 14.0115 62.5331 13.72 62.3078C13.2477 61.9429 12.7149 61.8776 11.6686 61.7618C10.6432 61.6484 9.86539 61.6979 8.93333 61.7618C7.71158 61.8456 7.10069 61.8874 7.01865 62.0348C6.79348 62.4394 7.55443 63.477 8.69149 64.5871C7.76326 64.6527 7.29009 64.7011 7.21864 64.8295C7.03179 65.1651 7.5252 65.9374 8.34731 66.8245C7.77587 66.8735 7.47446 66.9249 7.41863 67.0253C6.79134 68.1522 13.8005 74.1898 15.3509 73.0316C15.4686 72.9437 15.552 72.8145 15.6094 72.6571C15.6348 72.87 15.6608 73.0831 15.6867 73.2961C13.8552 73.0903 10.337 73.6413 8.24952 75.8221C7.21182 76.9062 7.05541 77.8421 7.01865 78.1427C6.85556 79.4762 7.50565 80.8953 8.045 80.9995C8.20423 81.9922 8.70321 82.8131 9.11271 82.806C9.62614 82.7971 9.53529 81.495 10.7539 80.0758C11.6042 79.0855 12.6153 78.5934 13.2156 78.3012C14.505 77.6737 15.2541 77.6921 16.1829 77.1809C16.2016 77.3186 16.2215 77.4562 16.2403 77.5939C14.539 77.8789 12.5961 78.6071 11.2494 80.0141C10.2117 81.0982 10.0553 82.0341 10.0185 82.3347C9.91803 83.1562 10.1271 84.0092 10.4279 84.5693C9.6095 85.4274 9.38323 86.3233 8.93334 88.1078C8.64592 89.2479 8.70869 89.6524 8.93334 89.8824C9.11911 90.0727 9.41261 90.1404 10.5745 90.0189C11.8349 89.8871 12.4651 89.8212 13.0362 89.6094C13.9397 89.2744 14.5626 88.699 15.7715 87.5618C16.2686 87.0942 16.6889 86.6969 17.0316 86.3504C17.2099 86.4112 17.3772 86.4574 17.5461 86.4907C17.5658 86.4945 17.5851 86.4973 17.6047 86.5009C17.9164 88.345 18.2458 90.1836 18.5924 92.0146C17.4648 92.2658 16.5014 93.0066 15.972 94.0728L11.7884 102.497C11.5243 103.029 11.3847 103.624 11.3847 104.217V125.88C11.3847 128.015 13.1255 129.753 15.2653 129.753H25.0304C27.1703 129.753 28.9111 128.015 28.9111 125.88V105.933C28.9111 105.447 28.8209 104.97 28.6428 104.518L24.6557 94.3779C24.0792 92.9119 22.7015 91.9573 21.1306 91.9229C21.9451 89.7781 22.7854 87.6359 23.6551 85.5023C23.7892 85.4504 23.9078 85.3965 24.0108 85.3394C24.1713 85.515 24.5 85.7198 25.1972 86.0526C26.3404 86.5983 26.9121 86.8712 27.5098 86.9889C28.4554 87.1752 29.2878 87.01 30.9141 86.672C33.127 86.2122 34.2381 85.9691 34.4696 85.3265C34.7899 84.4371 33.7851 83.2913 33.5082 82.9756C32.9062 82.2892 32.2418 81.9763 31.8313 81.7881C31.2983 81.5437 29.7789 80.8472 27.9423 81.3276C26.7863 81.6299 26.1242 82.2756 24.8001 83.5669C24.6726 83.6912 24.5625 83.8043 24.4647 83.9096C24.4427 83.8465 24.4179 83.784 24.3906 83.722C24.5763 83.2751 24.762 82.8284 24.95 82.3824C26.3079 81.0966 26.9761 80.3886 26.8493 79.7808C26.7897 79.4956 26.6097 79.2557 26.3779 79.0562C26.6355 78.4658 26.8936 77.8759 27.1549 77.2879C27.275 77.2852 27.3989 77.2795 27.5324 77.267C28.232 77.2011 29.0242 77.1266 29.1087 76.7912C29.1534 76.6137 28.9995 76.3543 28.697 76.0623C29.1341 75.9405 29.7999 75.0525 31.2944 74.5718C32.5381 74.1718 33.6577 74.2803 34.3225 74.3447C36.0379 74.511 36.5976 75.0668 38.1399 74.9216C38.8396 74.8558 39.6318 74.7812 39.7163 74.4458C39.7542 74.2952 39.6482 74.0853 39.4312 73.8469C39.8198 73.9004 40.2357 73.9428 40.6789 73.9682C41.4266 74.0111 41.8015 74.0296 41.8525 73.8864C42.0352 73.3738 38.1903 71.0309 33.839 70.7388C32.7825 70.6679 32.0186 70.74 31.4406 70.8814C32.8314 70.3633 34.9014 69.5754 37.1739 70.2132C37.9563 70.4328 39.5396 71.0395 41.8789 71.1736C42.6266 71.2165 43.0015 71.235 43.0525 71.0918C43.235 70.5794 39.3935 68.2383 35.0444 67.9446C36.0538 67.7409 37.1861 67.684 38.3739 68.0174C39.1562 68.237 40.7395 68.8437 43.0788 68.9778C43.8265 69.0207 44.2014 69.0392 44.2524 68.896C44.435 68.3833 40.5902 66.0404 36.2389 65.7483ZM16.1374 74.7242C16.1963 74.678 16.2541 74.6317 16.3097 74.5855C16.4096 74.7318 16.515 74.8444 16.6204 74.9156C16.6316 74.9743 16.6437 75.0322 16.6572 75.0893C16.5086 75.0735 16.3494 75.0627 16.1809 75.0571C16.1667 74.9462 16.1514 74.8352 16.1374 74.7242ZM24.7314 67.043C24.7483 67.1402 24.7668 67.2392 24.787 67.3406C24.6011 67.3051 24.3882 67.2798 24.1554 67.2648C24.3411 67.1973 24.5328 67.1241 24.7314 67.043ZM25.1742 68.8794C25.0314 68.865 24.8788 68.8556 24.7182 68.8506C24.8437 68.7552 24.9678 68.6584 25.0828 68.5621C25.1122 68.6672 25.1426 68.7729 25.1742 68.8794ZM21.8819 72.0425C23.3544 71.3521 24.1171 71.4993 25.3243 70.5937C25.4366 70.5094 25.5518 70.4228 25.6636 70.3357C26.0642 71.4019 26.5437 72.4189 27.0376 73.1561C25.6544 72.4591 23.7542 71.8927 21.8819 72.0425ZM25.4267 63.2483C25.4712 63.8301 25.6142 64.5696 25.8271 65.3643C25.815 65.3642 25.8029 65.3641 25.7907 65.3641C25.2622 65.0987 24.9711 64.9807 24.8693 65.0379C24.7633 65.0975 24.6923 65.2297 24.6521 65.42C22.9913 65.5779 20.7528 66.0844 18.6964 67.1618C16.8784 68.1143 16.2738 68.9517 15.9612 69.6189C15.8279 69.9033 15.719 70.2186 15.639 70.5354C15.598 70.168 15.5558 69.8012 15.5162 69.4332C16.4099 69.0861 17.7611 65.7337 21.1052 64.7869C21.8626 64.5725 23.452 64.273 25.4267 63.2483ZM15.6981 75.0553C15.7227 75.0375 15.7465 75.0218 15.7715 75.0031C15.8096 74.9745 15.8481 74.9456 15.8867 74.9165C15.8925 74.9619 15.8987 75.0074 15.9045 75.0529C15.8367 75.053 15.7683 75.0536 15.6981 75.0553ZM16.4388 77.0285C16.5466 76.9598 16.6565 76.8858 16.7714 76.7996C16.9444 76.6699 17.1243 76.5348 17.2876 76.4004C17.414 76.5276 17.5437 76.6021 17.6655 76.6C17.7132 76.5992 17.7544 76.5837 17.7932 76.5615C17.6884 76.8745 17.6267 77.1812 17.607 77.4538C17.263 77.4658 16.895 77.4967 16.5105 77.5515C16.4866 77.3771 16.4623 77.2029 16.4388 77.0285ZM20.8394 91.9196H19.4489C19.2498 91.9196 19.0537 91.9356 18.8613 91.9645C18.5205 90.1642 18.1964 88.3564 17.8893 86.5433C18.707 86.6338 19.5229 86.4704 20.9504 86.1737C21.9619 85.9635 22.7407 85.7985 23.313 85.62C22.4615 87.7137 21.6376 89.8153 20.8394 91.9196ZM24.0948 83.1866C24.2091 83.0802 24.3302 82.9665 24.4563 82.8479C24.3792 83.032 24.3042 83.2168 24.2275 83.4011C24.1847 83.327 24.1402 83.2556 24.0948 83.1866ZM24.7978 78.2793C23.9251 78.0086 23.1949 78.0888 22.7464 78.1427C22.1841 78.2104 20.6183 78.4022 19.3286 79.6465C18.8982 79.6352 18.4108 79.659 17.8914 79.7241C18.168 79.5975 18.4542 79.433 18.7713 79.195C19.3331 78.7736 19.9692 78.2964 19.8654 77.9665C19.8175 77.814 19.607 77.6876 19.2815 77.5971C19.6481 77.3546 20.1035 77.1047 20.6868 76.9171C21.9305 76.5171 23.0501 76.6256 23.7149 76.6901C25.1539 76.8295 25.7815 77.2416 26.8563 77.2856C26.62 77.8179 26.3869 78.3521 26.1536 78.8864C25.6547 78.5465 25.038 78.3537 24.7978 78.2793ZM27.9622 75.4867C27.9717 75.4657 27.981 75.4447 27.9904 75.4238C28.0648 75.4152 28.1383 75.4059 28.2099 75.3955C28.2151 75.5033 28.2289 75.6007 28.2505 75.6875C28.1609 75.621 28.0635 75.5539 27.9622 75.4867ZM30.22 71.4047C30.2134 71.4091 30.2068 71.4141 30.2002 71.4186C30.2161 71.3616 30.2309 71.3068 30.2454 71.2531C30.3679 71.2363 30.508 71.2019 30.6642 71.1541C30.4968 71.2341 30.3502 71.3191 30.22 71.4047Z" fill="#F2F2F2"/>
<path d="M63.8059 34.4434C63.8059 34.4434 67.3191 32.8465 69.5623 34.4434C71.8055 36.0403 73.8054 50.4128 71.4055 52.8082C69.0057 55.2036 65.0058 49.8139 65.0058 49.8139L63.8059 34.4434Z" fill="#FBD9C1"/>
<path d="M50.5282 34.6336C50.5282 34.6336 47.015 33.0366 44.7718 34.6336C42.5286 36.2305 40.5287 50.6029 42.9286 52.9984C45.3285 55.3938 49.3283 50.0041 49.3283 50.0041L50.5282 34.6336Z" fill="#FBD9C1"/>
<path d="M50.6282 52.2997C50.6282 52.2997 49.4283 57.6893 48.0283 60.0848L58.2278 66.0733L66.2274 60.8832C66.2274 60.8832 62.4276 54.6951 63.0276 52.8985L50.6282 52.2997Z" fill="#FBD9C1"/>
<path d="M111.97 40.3294C111.97 40.3294 111.403 43.9744 112.06 46.3263L102.412 63.403L106.165 66.1333L118.698 50.3934L120.435 42.6165L111.97 40.3294Z" fill="#FBD9C1"/>
<path d="M105.589 68.6172C106.918 66.2639 106.816 63.6917 105.359 62.872C103.903 62.0523 101.645 63.2956 100.315 65.6489C98.9858 68.0022 99.0885 70.5744 100.545 71.3941C102.001 72.2137 104.259 70.9705 105.589 68.6172Z" fill="#FBD9C1"/>
<path d="M115.734 57.7034C115.734 57.7034 111.121 60.9525 112.707 65.8025L111.409 82.1627L114.292 115.83H120.502L121.5 91.6586L125.536 76.4076L126.059 115.83L133.752 115.686C133.752 115.686 134.185 95.975 133.608 94.824C133.031 93.6729 133.608 94.5963 133.608 94.5963L138.365 71.5123L137.644 55.6891L115.734 57.7034Z" fill="#02073E"/>
<path d="M127.121 17.5613L118.761 20.7267L119.626 23.0287L112.707 28.2083L117.319 44.3227L114.725 58.7105L122.22 58.4228L138.365 56.984L136.635 39.4308L136.923 22.4532L130.581 20.1511L127.121 17.5613Z" fill="#FFC159"/>
<path d="M114.869 27.7767L112.707 28.2083C112.707 28.2083 111.698 28.9277 111.698 31.5175C111.698 34.1073 111.698 35.8339 111.986 37.2727C111.986 37.2727 110.256 41.8768 110.833 43.0278C111.409 44.1788 118.617 44.1788 118.617 44.1788L114.869 27.7767Z" fill="#FFC159"/>
<path d="M126.783 10.884C126.783 14.5067 123.841 17.4435 120.212 17.4435C116.582 17.4435 113.64 14.5067 113.64 10.884C113.64 7.26132 116.582 4.32454 120.212 4.32454C123.841 4.32454 126.783 7.26132 126.783 10.884Z" fill="#FBD9C1"/>
<path d="M124.318 15.4516C124.318 15.4516 125.483 10.9872 124.242 11.7744L122.317 11.5918L123.532 8.3461C123.532 8.3461 121.356 6.71774 120.489 7.66959C119.621 8.62144 119.829 9.15823 119.04 7.92001C118.251 6.68179 116.603 6.70519 115.094 7.59617C113.585 8.48715 112.405 8.63381 112.692 6.98053C112.979 5.32726 112.818 2.51797 113.714 2.83657C114.61 3.15516 114.365 3.33499 114.848 2.18047C115.331 1.02596 115.392 0.385404 116.511 0.879304C117.629 1.3732 120.44 -0.945546 121.602 0.45731C122.763 1.86016 123.778 2.08567 124.792 2.31117C125.807 2.53668 129.883 1.88918 129.542 8.19099C129.542 8.19099 132.263 13.6198 127.362 16.1281C127.362 16.1281 126.032 14.8179 125.103 16.4103L124.318 15.4516Z" fill="#02073E"/>
<path d="M61.2277 29.5433L54.828 29.743L51.4282 33.9349L47.6284 34.7334C47.6284 34.7334 46.4284 45.9119 48.2284 49.9043C50.0283 53.8966 49.2283 55.0943 49.2283 55.0943L63.6276 54.8947C63.6276 54.8947 63.2276 52.1834 65.6275 49.8461L66.831 45.4005C67.4745 43.0236 67.2552 40.4963 66.2121 38.2651L63.6276 32.7372L61.4277 31.9387L61.2277 29.5433Z" fill="#02073E"/>
<path d="M49.2283 57.4897L48.3283 58.9869C48.3283 58.9869 45.5285 62.7796 45.1285 73.5589C44.7285 84.3382 48.0283 119.219 48.0283 119.219H52.595L57.5319 72.0272L64.1275 119.271L70.0272 119.371L69.5273 71.1635C69.5273 71.1635 68.3273 60.1846 65.1275 57.7892C65.1275 57.7892 54.828 67.0714 49.2283 57.4897Z" fill="#02073E"/>
<path d="M40.8994 33.8417C40.8994 35.9141 40.7743 37.4561 38.5071 37.594C36.3776 37.7236 36.1147 35.9141 36.1147 33.8417C36.1147 31.7693 36.1643 30.1061 38.5071 30.0893C41.1743 30.0702 40.8994 31.7693 40.8994 33.8417Z" fill="#FFC159"/>
<path d="M54.228 33.8417C54.228 35.9141 54.7736 37.4561 51.8357 37.594C49.5755 37.7002 49.4434 35.9141 49.4434 33.8417C49.4434 31.7693 49.7754 30.3219 51.8357 30.0893C53.7736 29.8706 54.228 31.7693 54.228 33.8417Z" fill="#FFC159"/>
<path d="M52.1775 32.1361H38.8489V35.2062H52.1775V32.1361Z" fill="#FFC159"/>
<path d="M63.8983 33.2428C63.8983 35.3152 63.7732 36.8572 61.506 36.9952C59.3765 37.1248 59.1136 35.3152 59.1136 33.2428C59.1136 31.1705 59.1632 29.5073 61.506 29.4905C64.1732 29.4714 63.8983 31.1705 63.8983 33.2428Z" fill="#FFC159"/>
<path d="M77.2269 33.2428C77.2269 35.3152 77.7725 36.8572 74.8346 36.9952C72.5744 37.1013 72.4423 35.3152 72.4423 33.2428C72.4423 31.1705 72.7743 29.723 74.8346 29.4905C76.7725 29.2718 77.2269 31.1705 77.2269 33.2428Z" fill="#FFC159"/>
<path d="M75.1764 31.5372H61.8478V34.6073H75.1764V31.5372Z" fill="#FFC159"/>
<path d="M98.6965 65.98C98.6965 68.0524 98.5714 69.5944 96.3042 69.7324C94.1747 69.862 93.9119 68.0524 93.9119 65.98C93.9119 63.9077 93.9615 62.2445 96.3042 62.2277C98.9714 62.2086 98.6965 63.9077 98.6965 65.98Z" fill="#FFC159"/>
<path d="M112.025 65.9801C112.025 68.0524 112.571 69.5944 109.633 69.7324C107.373 69.8385 107.24 68.0524 107.24 65.9801C107.24 63.9077 107.572 62.4602 109.633 62.2277C111.571 62.009 112.025 63.9077 112.025 65.9801Z" fill="#FFC159"/>
<path d="M109.975 64.2744H96.646V67.3445H109.975V64.2744Z" fill="#FFC159"/>
<path d="M68.6142 37.9579C70.0493 37.9579 71.2126 36.0779 71.2126 33.7589C71.2126 31.4398 70.0493 29.5598 68.6142 29.5598C67.1792 29.5598 66.0159 31.4398 66.0159 33.7589C66.0159 36.0779 67.1792 37.9579 68.6142 37.9579Z" fill="#FBD9C1"/>
<path d="M56.3279 27.1479C60.2489 27.1479 63.4276 23.9752 63.4276 20.0615C63.4276 16.1478 60.2489 12.9751 56.3279 12.9751C52.4069 12.9751 49.2283 16.1478 49.2283 20.0615C49.2283 23.9752 52.4069 27.1479 56.3279 27.1479Z" fill="#FBD9C1"/>
<path d="M54.9024 22.2882L56.5451 19.679L57.2848 16.1304C57.2848 16.1304 64.768 17.9522 62.7603 14.3087C60.7526 10.6652 55.6422 9.75434 52.1744 12.487L50.6798 13.9443C50.6798 13.9443 53.9996 10.8474 51.9919 9.75434C49.9843 8.66129 50.3493 7.93259 49.2542 8.84346C48.1591 9.75434 48.7066 10.483 47.429 9.93651C46.1514 9.38999 43.4137 8.66129 43.7787 9.57216C44.1438 10.483 41.3902 12.8513 42.402 13.9443C43.4137 15.0374 42.5011 17.2235 44.3263 16.677C46.1514 16.1304 45.2389 18.8631 46.8815 17.77C46.8815 17.77 45.5332 19.485 46.6283 20.7602C47.7234 22.0354 49.4107 22.5316 49.2282 24.3533C49.0457 26.175 53.428 26.5491 53.428 26.5491L53.087 21.2313C53.087 21.2313 54.1724 20.3431 54.9024 22.2882Z" fill="#02073E"/>
<path d="M127.184 34.5161C127.184 34.5161 126.137 38.0537 126.476 40.4719L114.644 56.1201L118.001 59.3232L132.515 45.382L135.27 37.9038L127.184 34.5161Z" fill="#FBD9C1"/>
<path d="M117.1 61.7089C118.73 59.5524 118.97 56.9894 117.636 55.9841C116.302 54.9789 113.898 55.9121 112.267 58.0686C110.637 60.225 110.397 62.7881 111.731 63.7933C113.066 64.7986 115.469 63.8653 117.1 61.7089Z" fill="#FBD9C1"/>
<path d="M135.759 21.5078C135.759 21.5078 139.445 22.8426 138.976 25.3735C138.507 27.9044 138.329 29.5728 138.329 29.5728C138.329 29.5728 138.728 30.9553 138.207 31.6443C137.686 32.3333 135.011 40.4126 135.011 40.4126L125.391 37.1306C125.391 37.1306 131.031 21.5511 135.759 21.5078Z" fill="#FFC159"/>
<path d="M48.3181 33.9491C48.3181 36.2681 47.1548 38.1481 45.7197 38.1481C44.2847 38.1481 43.1213 36.2681 43.1213 33.9491C43.1213 31.63 44.2847 29.75 45.7197 29.75C47.1548 29.75 48.3181 31.63 48.3181 33.9491Z" fill="#FBD9C1"/>
</g>
<defs>
<clipPath id="clip0_2_446">
<rect width="161" height="130" fill="white"/>
</clipPath>
</defs>
</svg>
