<svg width="150" height="102" viewBox="0 0 150 102" fill="none" xmlns="http://www.w3.org/2000/svg">
<path d="M97.6818 10.2202L101.523 13.8592L99.7606 16.3543L95.8354 12.3618C95.6652 12.3501 95.4939 12.3139 95.3262 12.2497C94.414 11.901 93.9559 10.8753 94.303 9.95871C94.6501 9.04215 95.6709 8.58185 96.583 8.93059C97.1647 9.153 97.5605 9.65105 97.6818 10.2202Z" fill="#FBD9C1"/>
<path d="M85.0899 101.769L87.8612 101.769L89.1795 91.0277L85.0894 91.028L85.0899 101.769Z" fill="#FBD9C1"/>
<path d="M84.9923 104.674L93.5144 104.674V104.565C93.5143 102.725 92.0292 101.232 90.1974 101.232L88.6405 100.046L85.7361 101.233L84.9922 101.233L84.9923 104.674Z" fill="#2F2E41"/>
<path d="M91.5494 98.8284L94.1469 99.799L99.1091 90.1937L95.2755 88.7611L91.5494 98.8284Z" fill="#FBD9C1"/>
<path d="M90.4501 101.517L98.4376 104.502L98.4752 104.401C99.1137 102.675 98.2396 100.756 96.5226 100.115L95.4752 98.4571L92.3412 98.552L91.644 98.2914L90.4501 101.517Z" fill="#2F2E41"/>
<path d="M96.7979 46.1691L102.422 78.3119L97.1494 98.2687L92.2282 96.326L92.9312 94.7365L91.8766 92.6172L93.4585 82.0207L93.4609 75.2485L89.0645 61.7107L87.8342 83.9634L89.7675 95.0897L89.4036 98.2687L83.616 98.9751L84.319 96.6792L80.6281 85.5529L81.3311 83.4336L76.4099 57.4721L77.6402 49.1715L96.7979 46.1691Z" fill="#2F2E41"/>
<path d="M80.1888 14.4679H87.1956L89.3282 18.0001L91.6131 17.4703L92.7707 18.0001L97.9404 19.0597L96.3585 28.42L96.007 39.1931L96.1828 43.7849C98.0307 45.1416 97.5537 47.0114 97.1439 49.0966C97.1439 49.0966 79.4857 53.949 76.6736 52.3991V50.3966L78.3433 36.9855L72.1918 21.7972C71.9219 19.7178 74.108 19.1561 76.1463 18.7065L78.2554 18.0001L80.1888 14.4679Z" fill="#FFC159"/>
<path d="M96.3585 20.296L97.9403 19.0597L101.539 20.296L100.225 18.1767V17.1553L98.116 16.5872L97.9403 14.9977L96.3585 13.751L98.9488 10.7473L100.84 12.3493L101.983 12.3486L103.555 13.9283L109.191 21.6611C110.389 23.3051 110.045 25.6598 108.36 26.7945C107.712 27.2308 106.934 27.5369 106.025 27.5369H96.0588L96.3585 20.296Z" fill="#FFC159"/>
<path d="M84.3551 13.3631C87.2634 13.3631 89.621 10.9941 89.621 8.07176C89.621 5.14943 87.2634 2.78041 84.3551 2.78041C81.4468 2.78041 79.0892 5.14943 79.0892 8.07176C79.0892 10.9941 81.4468 13.3631 84.3551 13.3631Z" fill="#FBD9C1"/>
<path d="M74.2329 55.4052L74.1079 50.1018L77.113 49.6073L77.0466 55.2191C77.158 55.3489 77.2528 55.4969 77.3253 55.6618C77.7197 56.5589 77.3157 57.6073 76.423 58.0036C75.5303 58.3999 74.4869 57.994 74.0925 57.097C73.841 56.5249 73.9153 55.892 74.2329 55.4052Z" fill="#FBD9C1"/>
<path d="M74.1442 20.1024C72.9587 20.0341 72.0002 21.0597 72.1424 22.2444L69.2666 38.3461L68.8092 39.3136L69.3337 39.8579L69.444 41.1056L73.8227 52.7261L79.2945 52.9295L77.2561 28.6191L75.8391 21.3957C75.5884 20.6584 74.9183 20.147 74.1442 20.1024Z" fill="#FFC159"/>
<path d="M79.6968 52.771C79.7494 56.589 78.1149 57.4048 75.4786 56.6059C73.2481 55.93 71.2604 55.1119 71.2604 52.771C71.2604 50.4301 72.6162 46.9681 75.4786 48.1287C78.0396 46.7158 80.9815 50.0641 79.6968 52.771Z" fill="#FF6584"/>
<path d="M75.3267 48.2238C74.9901 47.6082 74.9669 46.8561 75.2796 46.2258C75.5582 45.6643 76.1098 45.2463 76.7178 45.1148C77.0486 45.0433 77.19 45.5539 76.8579 45.6257C76.3856 45.7279 76.1091 47.6805 75.8826 48.1118C75.639 48.5759 75.5328 47.5007 75.7819 47.9564C75.9454 48.2554 75.4903 48.5231 75.3267 48.2238Z" fill="#3F3D56"/>
<path d="M100.788 6.67615C100.788 9.01707 99.2059 11.31 96.5695 10.5111C94.3391 9.83519 91.4966 10.1154 93.7064 6.16791C90.76 4.68761 93.7071 0.873299 96.5695 2.03387C99.1305 0.620999 100.788 4.33523 100.788 6.67615Z" fill="#FF6584"/>
<path d="M96.4176 2.12901C95.3917 2.37022 95.919 2.47404 96.3706 1.11786C96.5687 0.522903 97.2007 0.138359 97.8087 0.00685623C98.1395 -0.0647088 98.2809 0.445928 97.9488 0.517757C97.4765 0.619917 97.0707 0.917906 96.8442 1.34928C96.6005 1.81335 96.6237 1.40592 96.8729 1.8616C97.0363 2.16061 96.5812 2.42825 96.4176 2.12901Z" fill="#3F3D56"/>
<path d="M71.3221 100.724C70.8149 100.756 70.5345 100.122 70.9183 99.7533L70.9565 99.6007C70.9514 99.5885 70.9464 99.5763 70.9413 99.5641C70.4283 98.335 68.6898 98.3435 68.1812 99.5744C67.7298 100.667 67.1551 101.761 67.0135 102.916C66.9501 103.426 66.9786 103.946 67.0912 104.446C66.0335 102.124 65.4769 99.5892 65.4769 97.0396C65.4769 96.399 65.5117 95.7584 65.5831 95.1194C65.6418 94.5967 65.7227 94.0773 65.8273 93.5625C66.3935 90.7803 67.6193 88.1303 69.3875 85.9169C70.2375 85.45 70.9464 84.7202 71.3746 83.8453C71.5284 83.5298 71.6489 83.1904 71.706 82.8446C71.6093 82.8574 71.3413 81.377 71.4142 81.2862C71.2794 81.0806 71.0381 80.9784 70.8909 80.7778C70.1587 79.7803 69.1498 79.9545 68.6231 81.3101C67.4981 81.8806 67.4872 82.8269 68.1775 83.737C68.6167 84.316 68.6771 85.0994 69.0624 85.7193C69.0228 85.7703 68.9815 85.8197 68.9419 85.8707C68.2149 86.8077 67.5861 87.8148 67.056 88.8729C67.2058 87.697 66.9846 86.2803 66.6076 85.3671C66.1783 84.3267 65.3738 83.4504 64.6653 82.5509C63.8143 81.4704 62.0692 81.942 61.9193 83.3116C61.9179 83.3248 61.9165 83.3381 61.9151 83.3513C62.0203 83.411 62.1234 83.4744 62.2241 83.5413C62.7985 83.923 62.6 84.8178 61.9194 84.9233L61.904 84.9257C61.942 85.3066 62.007 85.6842 62.1022 86.0555C61.1933 89.5875 63.1555 90.8739 65.9574 90.9317C66.0192 90.9635 66.0795 90.9954 66.1413 91.0257C65.8575 91.8288 65.6307 92.6527 65.4626 93.4877C65.3119 94.2254 65.2073 94.9712 65.1486 95.7202C65.0756 96.6651 65.082 97.6148 65.1613 98.5582L65.1565 98.5247C64.9551 97.4858 64.3937 96.5153 63.5786 95.8429C62.3643 94.8405 60.6488 94.4714 59.3388 93.6658C58.7082 93.2779 57.9001 93.7791 58.0101 94.5138L58.0155 94.5489C58.2106 94.6286 58.4009 94.721 58.5848 94.8246C58.69 94.8843 58.7931 94.9476 58.8938 95.0146C59.4683 95.3963 59.2697 96.2911 58.5891 96.3966L58.5737 96.399C58.5626 96.4006 58.5531 96.4022 58.542 96.4038C58.8766 97.2021 59.3428 97.9431 59.9264 98.5821C60.4947 101.665 62.9356 101.958 65.5466 101.06H65.5482C65.8337 102.309 66.2507 103.53 66.7868 104.693H71.2112C71.2271 104.644 71.2414 104.593 71.2556 104.543C70.8465 104.569 70.4342 104.545 70.0314 104.47C70.3596 104.065 70.6879 103.657 71.0162 103.253C71.0241 103.245 71.0305 103.237 71.0368 103.229C71.2033 103.022 71.3714 102.816 71.5379 102.609L71.538 102.609C71.5484 101.973 71.4724 101.339 71.3221 100.724Z" fill="#F2F2F2"/>
<path d="M88.7533 3.83025C89.0725 3.98815 89.3721 4.18552 89.6421 4.4125C89.7207 4.47912 88.9767 4.56795 89.0504 4.63702C88.5225 5.49066 90.7225 6.55894 89.787 6.61075C89.6004 6.21107 86.7204 5.27601 86.4085 4.96761C86.4527 5.32288 87.619 5.76452 87.5772 6.11732C86.5288 6.0507 84.1914 5.65596 82.9122 5.13045C83.6829 6.67371 83.6887 7.88667 81.9301 8.33777C80.6139 8.33777 79.695 9.64802 80.1377 10.8935L80.4569 11.7918L79.2293 10.5582C78.7187 10.0452 77.7299 8.83148 77.4044 7.53568C77.1707 6.60505 77.3611 5.62994 77.8476 4.80395C77.8656 4.77343 77.8819 4.74399 77.8961 4.71597C77.6186 4.84425 77.3289 4.94294 77.0318 5.00956C77.0195 4.47171 79.0967 3.47499 79.2293 3.15672C79.8456 1.67395 78.9469 1.67642 81.439 1.67642C81.6539 1.5325 82.0854 1.77836 82.6667 1.67642C83.7363 1.48882 84.1785 0.755353 85.5065 1.0358C86.6525 1.27782 87.7677 1.63281 88.6326 1.99494L89.0504 2.16985C89.3033 2.57693 89.4064 2.95688 89.3917 3.30227C89.3696 3.29735 89.3451 3.29241 89.323 3.28994C88.8884 3.22826 89.1806 3.7365 88.7533 3.83025Z" fill="#2F2E41"/>
</svg>
