<svg width="122" height="104" viewBox="0 0 122 104" fill="none" xmlns="http://www.w3.org/2000/svg">
<g clip-path="url(#clip0_2_496)">
<path d="M86.2583 38.3174C86.2583 38.3174 86.2083 40.4953 82.2481 43.6767L81.3511 45.2933L89.7199 50.1467C90.4735 50.1818 91.3206 50.3812 92.1643 50.7581C94.3519 51.7348 95.6875 53.519 95.1456 54.7453C94.6037 55.9716 92.3911 56.1744 90.2017 55.1977C89.7232 54.9849 89.2847 54.7319 88.8995 54.4555C86.0315 53.7335 73.2708 50.2807 74.6831 46.3504C76.2721 41.9277 77.8278 36.756 77.8278 36.756L86.26 38.3174H86.2583Z" fill="#FBD9C1"/>
<path d="M79.3135 30.338C79.8154 28.6761 81.0226 27.3476 82.625 26.6926C84.2274 26.0392 86.0132 26.1464 87.5289 26.9841C88.9979 27.7983 90.0317 29.2122 90.3652 30.8624C90.6986 32.5142 90.2951 34.2196 89.2597 35.5448L85.7681 40.0078L76.9591 38.1281L79.3135 30.338Z" fill="#FFC159"/>
<path d="M97.4901 46.8547C94.9472 45.9417 92.2827 45.4927 89.5048 45.4659C89.2147 45.4156 88.9379 45.6116 88.8878 45.9031L88.586 47.6521C88.536 47.9436 88.7311 48.2217 89.0212 48.272C90.1051 48.9187 91.2072 49.3107 92.3244 49.5301L91.1672 56.2481C89.8666 55.9934 88.6727 55.9331 87.6573 56.1961C87.3672 56.1459 87.0904 56.3419 87.0403 56.6334L86.7385 58.3824C86.6885 58.6739 86.8836 58.952 87.1737 59.0022C89.4381 59.8215 92.1943 60.2018 95.1573 60.3911C95.4475 60.4413 95.7243 60.2453 95.7743 59.9538L96.0761 58.2048C96.1261 57.9133 95.931 57.6352 95.6409 57.585C94.497 57.1678 93.3749 56.7892 92.306 56.5094L93.4799 49.701C94.6454 49.8149 95.8226 49.7731 97.0065 49.6608C97.2966 49.7111 97.5734 49.5151 97.6234 49.2236L97.9252 47.4746C97.9753 47.1831 97.7802 46.905 97.4901 46.8547Z" fill="#2F2E41"/>
<path d="M61.9424 104.664L54.1389 96.6461L59.7781 88.5511L61.3071 88.6516C62.1191 88.7052 62.8211 88.0887 62.8778 87.2728L63.1646 83.1315C63.2246 82.2737 62.5477 81.5433 61.6906 81.5433H47.3575C47.4742 81.2635 47.5042 80.9503 47.4359 80.647L38.8853 42.6246C38.7203 41.8908 38.0349 41.3966 37.2896 41.4753L33.9114 41.8322C33.0327 41.926 32.4308 42.7687 32.6242 43.6348L41.785 84.5287C41.9917 85.4501 42.9388 85.8806 43.7242 85.6009C43.6808 85.7232 43.6558 85.8455 43.6458 85.9694L42.4303 86.0666L21.7543 109.186H28.0905L44.0977 91.26L59.4379 109.186H64.4402L64.6069 106.17L61.9391 104.662H61.9424V104.664ZM46.944 87.7067L55.3361 88.2596L52.0496 94.4983L47.2708 89.5881L46.9456 87.7067H46.944Z" fill="#F2F2F2"/>
<path d="M88.6577 17.4299C92.4334 17.4299 95.4941 14.3546 95.4941 10.5612C95.4941 6.76769 92.4334 3.69247 88.6577 3.69247C84.8821 3.69247 81.8213 6.76769 81.8213 10.5612C81.8213 14.3546 84.8821 17.4299 88.6577 17.4299Z" fill="#FBD9C1"/>
<path d="M75.6152 98.1304V104.999L70.4462 105.167L70.6613 98.1304H75.6152Z" fill="#FBD9C1"/>
<path d="M74.0995 104.123L74.0812 104.151L74.0478 104.158C73.9228 104.187 70.9831 104.827 70.126 103.622C70.0577 103.526 69.9993 103.488 69.9493 103.503C69.389 103.684 68.9438 107.976 68.9438 109.604C68.9438 110.564 71.0748 110.812 73.7744 111.124C75.0349 111.27 76.4639 111.436 77.8795 111.699C80.9576 112.272 83.4937 110.854 84.7326 109.958C84.9511 109.799 85.0861 109.553 85.1011 109.283C85.1161 109.011 85.0094 108.75 84.8077 108.567C83.1753 107.09 77.7745 102.245 76.8424 101.979C76.7757 101.96 76.7074 101.95 76.6373 101.95C75.5552 101.95 74.1145 104.099 74.0995 104.121V104.123Z" fill="#2F2E41"/>
<path d="M85.2862 98.1304V104.999L80.1172 105.167L80.3323 98.1304H85.2862Z" fill="#FBD9C1"/>
<path d="M87.3705 48.9605L90.1218 51.0547L90.622 74.6763L85.9532 100.476L79.8671 100.727L79.7004 76.1003L71.8635 53.6514L73.4476 48.3742L87.3705 48.9605Z" fill="#2F2E41"/>
<path d="M74.5314 52.9812L71.8636 53.6514L69.946 100.476L76.8658 99.8894L81.4512 66.8024L74.5314 52.9812Z" fill="#2F2E41"/>
<path d="M87.5223 111.866C86.1117 111.603 84.686 111.439 83.4288 111.293C80.5391 110.958 78.4515 110.715 78.4515 109.606C78.4515 108.765 78.775 103.602 79.572 103.346C79.6604 103.317 79.7938 103.327 79.9355 103.527C80.6825 104.577 83.3287 104.069 83.6522 104.002C83.8523 103.707 85.403 101.486 86.5602 101.819C87.4523 102.076 91.8709 105.988 94.4271 108.296C94.7105 108.552 94.8589 108.919 94.8339 109.301C94.8089 109.68 94.6172 110.022 94.3053 110.236C93.2766 110.946 91.349 112 88.9763 112C88.5077 112 88.0209 111.958 87.5223 111.866Z" fill="#2F2E41"/>
<path d="M81.1794 19.1219L82.6734 14.081L89.1747 15.7361L88.9113 21.2076L81.1794 19.1219Z" fill="#FBD9C1"/>
<path d="M73.4325 48.4563L73.3591 48.4429L74.5046 30.2861C74.7414 26.5351 76.0937 22.9952 78.4147 20.05L81.2627 16.4364L90.3284 21.4975L90.3635 21.5159L92.371 32.2763L92.3744 32.2964L90.2017 51.0798L90.18 51.1518L73.4325 48.458V48.4563Z" fill="#FFC159"/>
<path d="M82.7317 14.2368L83.317 14.3725C83.317 14.3725 84.3258 10.4104 84.9894 11.233C85.6547 12.0555 87.3521 12.3068 87.3521 12.3068L87.9357 11.0118C87.9357 11.0118 91.0972 10.8879 91.6207 9.43705C91.6207 9.43705 98.3354 9.75871 96.4546 6.17358C94.5754 2.58845 93.9718 3.35406 93.9718 3.35406C93.9718 3.35406 92.136 2.25842 91.7241 1.1611C91.3123 0.063787 87.2621 -0.892805 84.8744 1.42748C76.1271 9.93294 82.7301 14.2351 82.7301 14.2351L82.7317 14.2368Z" fill="#3F3D56"/>
<path d="M98.6005 39.8463L97.4521 40.0564L98.7665 47.3084L99.9148 47.0983L98.6005 39.8463Z" fill="#3F3D56"/>
<path d="M95.4275 48.3457C97.2216 47.106 100.2 46.8999 103.399 46.8882C103.69 46.8346 103.968 47.0289 104.02 47.3204L104.336 49.0678C104.39 49.3593 104.196 49.639 103.906 49.691C101.058 50.5387 98.3421 51.1351 95.9343 51.1485C95.6442 51.2021 95.3658 51.0078 95.3141 50.7163L94.9973 48.9689C94.9439 48.6774 95.1373 48.3976 95.4275 48.3457Z" fill="#3F3D56"/>
<path d="M93.4865 37.6339C96.1027 36.6991 98.7589 36.1982 101.458 36.1764C101.749 36.1228 102.027 36.3171 102.079 36.6086L102.396 38.3559C102.449 38.6474 102.255 38.9272 101.965 38.9792C99.5009 40.1636 96.9381 40.9895 93.9934 40.4367C93.7033 40.4903 93.4248 40.2959 93.3731 40.0044L93.0563 38.2571C93.003 37.9656 93.1964 37.6858 93.4865 37.6339Z" fill="#3F3D56"/>
<path d="M87.9875 32.0451C87.9875 32.0451 88.6861 34.1057 86.0599 38.4648L85.7715 40.2926L95.2908 41.9528C96.0111 41.725 96.8748 41.6194 97.7952 41.6814C100.185 41.8406 102.049 43.0551 101.96 44.3937C101.872 45.7323 99.8628 46.6889 97.4751 46.5297C96.9532 46.4945 96.4546 46.4091 95.9977 46.2834C93.0564 46.5984 79.8938 47.7711 79.8721 43.5929C79.8488 38.8904 79.537 33.4959 79.537 33.4959L87.9875 32.0451Z" fill="#FBD9C1"/>
<path d="M78.7333 26.9573C78.6349 25.2233 79.3135 23.5581 80.5924 22.3904C81.8713 21.2227 83.5854 20.7051 85.2962 20.9681C86.9536 21.2244 88.4093 22.1944 89.288 23.6284C90.1667 25.0625 90.3735 26.8048 89.8549 28.4081L88.1075 33.8059L79.1935 35.0875L78.7349 26.9589L78.7333 26.9573Z" fill="#FFC159"/>
<path d="M42.3103 98.4144L42.0056 105.779L43.1718 105.828L43.4765 98.4631L42.3103 98.4144Z" fill="#3F3D56"/>
<path d="M38.9721 95.1668C41.7283 94.8317 44.4295 94.9306 47.069 95.5035C47.3625 95.5153 47.5926 95.7665 47.5809 96.0614L47.5076 97.8355C47.4959 98.1304 47.2458 98.3616 46.9523 98.3498C44.2895 98.9613 41.6082 99.2009 38.8553 98.0131C38.5619 98.0014 38.3318 97.7501 38.3434 97.4552L38.4168 95.6811C38.4285 95.3863 38.6786 95.1551 38.9721 95.1668Z" fill="#3F3D56"/>
</g>
<defs>
<clipPath id="clip0_2_496">
<rect width="122" height="112" fill="white"/>
</clipPath>
</defs>
</svg>
